#tb 0: 1/25
0,          0,          0,        1,   506880, 0x884bc093
0,          2,          2,        1,   506880, 0x4b09548f
0,          3,          3,        1,   506880, 0x195bbee1
0,          4,          4,        1,   506880, 0xcad11e28
0,          5,          5,        1,   506880, 0x25a2c499
0,          6,          6,        1,   506880, 0x239e2689
0,          7,          7,        1,   506880, 0x239e2689
0,          8,          8,        1,   506880, 0x239e2689
0,          9,          9,        1,   506880, 0x239e2689
0,         10,         10,        1,   506880, 0x17913b35
0,         11,         11,        1,   506880, 0x17913b35
0,         12,         12,        1,   506880, 0xfc4c9bb4
0,         13,         13,        1,   506880, 0xfc4c9bb4
0,         14,         14,        1,   506880, 0x0090cbcf
0,         15,         15,        1,   506880, 0xccc12399
0,         16,         16,        1,   506880, 0xc0a7af29
0,         17,         17,        1,   506880, 0xc0a7af29
0,         18,         18,        1,   506880, 0xc524bca8
0,         19,         19,        1,   506880, 0xc62a1156
0,         20,         20,        1,   506880, 0xc62a1156
0,         21,         21,        1,   506880, 0xc62a1156
0,         22,         22,        1,   506880, 0xb5c80b5d
0,         23,         23,        1,   506880, 0xea4f9ebf
0,         24,         24,        1,   506880, 0xd0dc8b34
0,         25,         25,        1,   506880, 0xd0dc8b34
0,         26,         26,        1,   506880, 0x83338b51
0,         27,         27,        1,   506880, 0x83338b51
0,         28,         28,        1,   506880, 0x83338b51
0,         29,         29,        1,   506880, 0x478ed9b6
0,         30,         30,        1,   506880, 0x478ed9b6
0,         31,         31,        1,   506880, 0x478ed9b6
0,         32,         32,        1,   506880, 0x478ed9b6
0,         33,         33,        1,   506880, 0x45e44eba
0,         34,         34,        1,   506880, 0x45e44eba
0,         35,         35,        1,   506880, 0x39f87da3
0,         36,         36,        1,   506880, 0x39f87da3
0,         37,         37,        1,   506880, 0x39f87da3
0,         38,         38,        1,   506880, 0x693e0646
0,         39,         39,        1,   506880, 0x693e0646
0,         40,         40,        1,   506880, 0xd113ce59
0,         41,         41,        1,   506880, 0x26805371
0,         42,         42,        1,   506880, 0x3b6dd731
0,         43,         43,        1,   506880, 0x3b6dd731
0,         44,         44,        1,   506880, 0xed544f56
0,         45,         45,        1,   506880, 0xe06586d1
0,         46,         46,        1,   506880, 0xd889d381
0,         47,         47,        1,   506880, 0xd889d381
0,         48,         48,        1,   506880, 0xd889d381
0,         49,         49,        1,   506880, 0xedcdb7f0
0,         50,         50,        1,   506880, 0xedcdb7f0
0,         51,         51,        1,   506880, 0xedcdb7f0
0,         52,         52,        1,   506880, 0xedcdb7f0
0,         53,         53,        1,   506880, 0x72f4b21e
0,         54,         54,        1,   506880, 0xd148430c
0,         55,         55,        1,   506880, 0xd2a5ac39
0,         56,         56,        1,   506880, 0xd2a5ac39
0,         57,         57,        1,   506880, 0xd2a5ac39
0,         58,         58,        1,   506880, 0xd2a5ac39
0,         59,         59,        1,   506880, 0xd2a5ac39
0,         60,         60,        1,   506880, 0x65c0f0e0
